<svg id="Layer_1" data-name="Layer 1" xmlns="http://www.w3.org/2000/svg" xmlns:xlink="http://www.w3.org/1999/xlink" viewBox="0 0 425.2 141.73"><defs><style>.cls-1{fill:#fff;}.cls-2{fill:url(#linear-gradient);}</style><linearGradient id="linear-gradient" x1="74.33" y1="128.21" x2="74.33" y2="18.43" gradientUnits="userSpaceOnUse"><stop offset="0" stop-color="#4866ee"/><stop offset="0.55" stop-color="#2593f5"/><stop offset="1" stop-color="#06bcfb"/></linearGradient></defs><path class="cls-1" d="M164.91,60.14c8.28,0,14.51,6.53,14.51,15.62,0,9.29-6.23,15.37-14.57,15.37a11.74,11.74,0,0,1-9.5-4.18h-.09v15.89h-6.9V60.59h6.9v3.64h.12a12,12,0,0,1,9.53-4.09Zm7.5,15.65c0-5.78-3.85-9.39-8.67-9.39-5.17,0-8.76,4.06-8.76,9.39s3.89,9.08,8.79,9.08C168.86,84.87,172.41,81.11,172.41,75.79Z"/><path class="cls-1" d="M184.84,75.67c0-8.88,6.28-15.53,15.79-15.53,9.21,0,15.77,6.32,15.77,15.53s-6.56,15.46-15.77,15.46C191.12,91.13,184.84,84.48,184.84,75.67Zm15.79,9.2c4.88,0,8.76-3.79,8.76-9.2s-3.82-9.27-8.76-9.27c-5.26,0-8.78,4-8.78,9.27s3.61,9.2,8.78,9.2Z"/><path class="cls-1" d="M221.07,86.74l3.49-5.18a11.33,11.33,0,0,0,8.66,3.55c2.65,0,4.22-1.2,4.22-2.94,0-1.57-2-2.32-6-3.68-4.94-1.68-9.18-3.94-9.18-9.84,0-4.9,4.45-8.51,10.59-8.51a16.21,16.21,0,0,1,10.65,3.76l-3.46,5.42a11.22,11.22,0,0,0-7.55-3.22c-1.35,0-3.28.75-3.28,2.58,0,1.51,1.9,2.53,4.78,3.68,6.38,2.52,10.42,3.67,10.42,9.65,0,5.06-3.59,9.12-11.23,9.12A18,18,0,0,1,221.07,86.74Z"/><path class="cls-1" d="M278.27,78H256.36a8.31,8.31,0,0,0,8.58,6.86,9.29,9.29,0,0,0,7.49-3.55l4.81,4.12c-2.55,3.28-6.77,5.69-12.66,5.69-8.76,0-15.38-6.14-15.38-15.52,0-9.21,6.29-15.47,14.65-15.47,8.88,0,14.6,6.38,14.6,15.13A19.91,19.91,0,0,1,278.27,78Zm-14-11.61a7.61,7.61,0,0,0-7.74,6h15c-.88-3.64-3.37-6-7.31-6Z"/><path class="cls-1" d="M286,60.59h6.89V90.65H286Z"/><path class="cls-1" d="M331.59,45.27V90.65H325v-4h-.12a11.71,11.71,0,0,1-9.78,4.51c-8.33,0-14.56-6.08-14.56-15.37,0-9.09,6.23-15.62,14.5-15.62a12,12,0,0,1,9.51,4.06h.15V45.27ZM325,75.79c0-5.33-3.58-9.39-8.76-9.39-4.81,0-8.66,3.61-8.66,9.39,0,5.32,3.55,9.08,8.63,9.08C321.09,84.87,325,81.23,325,75.79Z"/><path class="cls-1" d="M338.78,75.67c0-8.88,6.29-15.53,15.8-15.53,9.21,0,15.77,6.32,15.77,15.53s-6.56,15.46-15.77,15.46C345.07,91.13,338.78,84.48,338.78,75.67Zm15.8,9.2c4.88,0,8.76-3.79,8.76-9.2s-3.82-9.27-8.76-9.27c-5.27,0-8.79,4-8.79,9.27s3.61,9.2,8.79,9.2Z"/><path class="cls-1" d="M394.6,60.14c6.59,0,11,3.79,11,12.82V90.68h-6.89v-16c0-6.35-2.37-8.33-6.53-8.33-4.66,0-7.79,3.25-7.79,9.14V90.65h-6.89V60.59h6.89v4.12h.09a13.14,13.14,0,0,1,10.08-4.57Z"/><path class="cls-1" d="M113.14,34.51A54.89,54.89,0,1,0,62.67,127v-8A47,47,0,0,1,41,106.64c-.4-.4-.79-.81-1.17-1.22h7.59V103H37.7a47.78,47.78,0,0,1-3.64-5.15H47.43l-.17-2.47H32.66a48.86,48.86,0,0,1-2.34-5.15H41.05l-.45-2.46H29.46a46.48,46.48,0,0,1-1.34-5.16h16.5l-.79-2.46H27.7a48.49,48.49,0,0,1-.46-5.16h9.81l-1-2.46H27.22a49.23,49.23,0,0,1,.52-6.24H39l-1.14-2.47H28.18a47.13,47.13,0,0,1,92.3,0H110.8l-1.14,2.47h11.25a45.8,45.8,0,0,1,.52,6.24h-8.86l-1,2.46h9.8A48.49,48.49,0,0,1,121,80.1H104.84l-.8,2.46h16.5a46.48,46.48,0,0,1-1.34,5.16H108.06l-.45,2.46h10.73A47,47,0,0,1,116,95.33H101.4l-.17,2.47H114.6A47.78,47.78,0,0,1,111,103h-9.73v2.47h7.59c-.39.41-.77.82-1.17,1.22a47,47,0,0,1-29.43,13.64V105.42H93.69v-3.88c0-31.48,14.25-42,17.35-43.88a39.73,39.73,0,0,0-3.51-6.95c-3.22,1.9-20.3,13.51-21.54,46.94H78.22V38.38l-7.78,7.78V97.65H62.67c-1.24-33.43-18.32-45-21.54-46.94a39.05,39.05,0,0,0-3.51,6.95C40.72,59.57,55,70.06,55,101.54v3.88H70.44v21.17h0v1.48c1.29.09,2.58.14,3.89.14a54.89,54.89,0,0,0,38.81-93.7Z"/></svg>