<svg id="Layer_1" data-name="Layer 1" xmlns="http://www.w3.org/2000/svg" xmlns:xlink="http://www.w3.org/1999/xlink" viewBox="0 0 240.94 85.04"><defs><style>.cls-1{fill:#fff;}.cls-2{stroke:#368aee;stroke-miterlimit:10;fill:url(#linear-gradient);}</style><linearGradient id="linear-gradient" x1="7.4" y1="42.72" x2="7.4" y2="42.72" gradientUnits="userSpaceOnUse"><stop offset="0" stop-color="#4866ee"/><stop offset="0.55" stop-color="#2593f5"/><stop offset="1" stop-color="#06bcfb"/></linearGradient></defs><path class="cls-1" d="M33.1,27H28l-1.06,2.82H26l4.08-10.66H31l4.11,10.66h-.91Zm-.3-.81-2.27-6h0l-2.25,6Z"/><path class="cls-1" d="M41.18,27.76v-4.5h-1v-.73h1V20l.79-.09v2.64h2.65v.73H42v4.3c0,1,.19,1.57,1.06,1.57a2.78,2.78,0,0,0,1.38-.42l.2.71a3.08,3.08,0,0,1-1.67.47C41.61,29.89,41.18,29.09,41.18,27.76Z"/><path class="cls-1" d="M45.63,26.19a3.7,3.7,0,1,1,3.7,3.7A3.6,3.6,0,0,1,45.63,26.19Zm6.59,0a2.9,2.9,0,1,0-2.89,2.95A2.85,2.85,0,0,0,52.22,26.19Z"/><path class="cls-1" d="M54.5,26.19a3.7,3.7,0,1,1,3.7,3.7A3.6,3.6,0,0,1,54.5,26.19Zm6.59,0a2.9,2.9,0,1,0-2.89,2.95A2.85,2.85,0,0,0,61.09,26.19Z"/><path class="cls-1" d="M63.94,18.77h.79V29.82h-.79Z"/><path class="cls-1" d="M66.58,28.86l.45-.62a3.09,3.09,0,0,0,2.35.9c1.08,0,1.7-.55,1.7-1.27s-.84-1-2-1.43-2.15-.87-2.15-2.11a2,2,0,0,1,2.28-1.87,3.59,3.59,0,0,1,2.41.89l-.43.62a3,3,0,0,0-2.06-.76c-.74,0-1.4.4-1.4,1.12s.72,1,1.6,1.34c1.53.54,2.58.82,2.57,2.24,0,1.05-.83,2-2.5,2A4.13,4.13,0,0,1,66.58,28.86Z"/><path class="cls-1" d="M79.92,26.37H74.05a2.72,2.72,0,0,0,2.73,2.77,2.85,2.85,0,0,0,2.29-1.09l.56.48a3.44,3.44,0,0,1-2.84,1.36,3.5,3.5,0,0,1-3.55-3.71,3.48,3.48,0,0,1,3.41-3.72A3.27,3.27,0,0,1,79.94,26,2.54,2.54,0,0,1,79.92,26.37Zm-5.84-.73h5.07a2.46,2.46,0,0,0-2.43-2.43A2.67,2.67,0,0,0,74.08,25.64Z"/><path class="cls-1" d="M82.06,27.76v-4.5h-1v-.73h1V20l.79-.09v2.64h2.66v.73H82.85v4.3c0,1,.19,1.57,1.06,1.57a2.75,2.75,0,0,0,1.38-.42l.2.71a3,3,0,0,1-1.67.47C82.5,29.89,82.06,29.09,82.06,27.76Z"/><path class="cls-1" d="M91.76,27.76v-4.5h-1v-.73h1V20l.79-.09v2.64h2.66v.73H92.55v4.3c0,1,.19,1.57,1.06,1.57A2.78,2.78,0,0,0,95,28.71l.2.71a3.08,3.08,0,0,1-1.67.47C92.2,29.89,91.76,29.09,91.76,27.76Z"/><path class="cls-1" d="M96.21,26.19a3.7,3.7,0,1,1,3.71,3.7A3.6,3.6,0,0,1,96.21,26.19Zm6.59,0a2.89,2.89,0,1,0-2.89,2.95A2.85,2.85,0,0,0,102.8,26.19Z"/><path class="cls-1" d="M119.55,22.53,117,29.82h-.82l-1.88-5.88h0l-1.83,5.88h-.81l-2.55-7.29h.83L112,28.6h0l1.89-6.07h.73l1.93,6.08h0l2.12-6.08Z"/><path class="cls-1" d="M120.36,26.19a3.7,3.7,0,1,1,3.71,3.7A3.6,3.6,0,0,1,120.36,26.19Zm6.6,0a2.9,2.9,0,1,0-2.9,2.95A2.85,2.85,0,0,0,127,26.19Z"/><path class="cls-1" d="M133.41,22.46v.88l-.46,0c-1.49,0-2.44,1.22-2.44,2.93v3.58h-.79V22.53h.79v1.39h0A2.77,2.77,0,0,1,133,22.46Z"/><path class="cls-1" d="M138,25.61l2.79,4.21h-.92l-2.42-3.59h0l-1.8,2v1.61h-.79v-11h.79v8.32h0l4.13-4.56h1Z"/><path class="cls-1" d="M156.47,22.53l-2.56,7.29h-.82l-1.88-5.88h0l-1.84,5.88h-.8L146,22.53h.83l2.11,6.07h0l1.88-6.07h.73l1.94,6.08h0l2.11-6.08Z"/><path class="cls-1" d="M158,20.33a.65.65,0,0,1,.66-.66.66.66,0,1,1,0,1.32A.65.65,0,0,1,158,20.33Zm.25,2.2h.79v7.29h-.79Z"/><path class="cls-1" d="M161.72,27.76v-4.5h-1v-.73h1V20l.79-.09v2.64h2.66v.73h-2.66v4.3c0,1,.19,1.57,1.06,1.57a2.78,2.78,0,0,0,1.38-.42l.2.71a3.08,3.08,0,0,1-1.67.47C162.16,29.89,161.72,29.09,161.72,27.76Z"/><path class="cls-1" d="M173.17,25.5v4.32h-.8V25.6c0-1.9-.82-2.39-1.92-2.39-1.61,0-2.67,1.17-2.67,3v3.61H167v-11h.8V24h0a3.29,3.29,0,0,1,2.83-1.49C172.17,22.46,173.17,23.32,173.17,25.5Z"/><path class="cls-1" d="M37.61,43.56v4.27h-.79v-4c0-1.94-.67-2.6-1.86-2.6s-2.38,1.17-2.38,3v3.62h-.79V43.75c0-1.88-.71-2.54-1.83-2.54-1.36,0-2.42,1.17-2.42,3v3.61h-.79V40.53h.79v1.39h0a3.07,3.07,0,0,1,2.58-1.46A2.17,2.17,0,0,1,32.38,42h0a3.09,3.09,0,0,1,2.72-1.58C36.77,40.46,37.61,41.51,37.61,43.56Z"/><path class="cls-1" d="M39.38,44.19a3.7,3.7,0,1,1,3.71,3.7A3.6,3.6,0,0,1,39.38,44.19Zm6.59,0a2.89,2.89,0,1,0-2.89,3A2.85,2.85,0,0,0,46,44.19Z"/><path class="cls-1" d="M55.38,36.77v11h-.77V46.43h0a3.13,3.13,0,0,1-2.77,1.46,3.49,3.49,0,0,1-3.56-3.65,3.56,3.56,0,0,1,3.54-3.78A3.23,3.23,0,0,1,54.56,42h0V36.77Zm-.77,7.47a2.79,2.79,0,1,0-5.55,0,2.78,2.78,0,1,0,5.55,0Z"/><path class="cls-1" d="M63.67,40.53v7.29h-.79V46.47h0a3.09,3.09,0,0,1-2.54,1.42c-1.66,0-2.66-1-2.66-3V40.53h.8v4.12c0,1.85.74,2.49,2,2.49s2.46-1.17,2.46-3v-3.6Z"/><path class="cls-1" d="M66.11,36.77h.79v11h-.79Z"/><path class="cls-1" d="M76.05,40.53v7.29h-.76v-1.4h0a3.14,3.14,0,0,1-2.78,1.47,3.49,3.49,0,0,1-3.56-3.65,3.55,3.55,0,0,1,3.53-3.78A3.23,3.23,0,0,1,75.23,42h0V40.53Zm-.77,3.71a2.79,2.79,0,1,0-5.55,0,2.78,2.78,0,1,0,5.55,0Z"/><path class="cls-1" d="M82.09,40.46v.88l-.46,0c-1.49,0-2.44,1.22-2.44,2.93v3.58H78.4V40.53h.79v1.39h0a2.8,2.8,0,0,1,2.48-1.46Z"/><path class="cls-1" d="M94.34,40.53v6.94a3.11,3.11,0,0,1-3.46,3.39,5.66,5.66,0,0,1-3-.81l.2-.75a4.89,4.89,0,0,0,2.75.81,2.4,2.4,0,0,0,2.7-2.52V46.35h0a3.22,3.22,0,0,1-2.71,1.33,3.61,3.61,0,0,1,0-7.22,3.32,3.32,0,0,1,2.74,1.37h0v-1.3ZM93.58,44a2.68,2.68,0,0,0-2.72-2.81A2.86,2.86,0,1,0,93.58,44Z"/><path class="cls-1" d="M102.88,44.37H97a2.71,2.71,0,0,0,2.72,2.77A2.85,2.85,0,0,0,102,46.05l.57.48a3.47,3.47,0,0,1-2.85,1.36,3.51,3.51,0,0,1-3.55-3.71,3.48,3.48,0,0,1,3.41-3.72A3.27,3.27,0,0,1,102.9,44,2.54,2.54,0,0,1,102.88,44.37ZM97,43.64h5.07a2.45,2.45,0,0,0-2.43-2.43A2.67,2.67,0,0,0,97,43.64Z"/><path class="cls-1" d="M110.92,43.5v4.32h-.79V43.6c0-1.9-.82-2.39-1.84-2.39-1.61,0-2.68,1.17-2.68,3v3.61h-.79V40.53h.79V42h0a3.29,3.29,0,0,1,2.83-1.49C109.93,40.46,110.92,41.32,110.92,43.5Z"/><path class="cls-1" d="M112.73,44.19a3.7,3.7,0,1,1,3.71,3.7A3.6,3.6,0,0,1,112.73,44.19Zm6.59,0a2.89,2.89,0,1,0-2.89,3A2.85,2.85,0,0,0,119.32,44.19Z"/><path class="cls-1" d="M122.2,45.76v-4.5h-1v-.73h1V38l.79-.09v2.64h2.66v.73H123v4.3c0,1,.19,1.57,1.06,1.57a2.78,2.78,0,0,0,1.38-.42l.2.71a3.08,3.08,0,0,1-1.67.47C122.64,47.89,122.2,47.09,122.2,45.76Z"/><path class="cls-1" d="M133.65,40.53l-4.24,10.25h-.86l1.29-3.16-3.18-7.09h.87l2.7,6.12h0l2.51-6.12Z"/><path class="cls-1" d="M138.89,40.46a3.56,3.56,0,0,1,3.54,3.78,3.5,3.5,0,0,1-3.57,3.65,3.14,3.14,0,0,1-2.74-1.42h0v4.31h-.79V40.53h.79V42h0a3.23,3.23,0,0,1,2.77-1.51Zm2.73,3.78a2.79,2.79,0,1,0-5.55,0,2.78,2.78,0,1,0,5.55,0Z"/><path class="cls-1" d="M150.59,44.37h-5.86a2.71,2.71,0,0,0,2.72,2.77,2.85,2.85,0,0,0,2.29-1.09l.57.48a3.47,3.47,0,0,1-2.85,1.36,3.72,3.72,0,0,1-.13-7.43A3.27,3.27,0,0,1,150.61,44,2.54,2.54,0,0,1,150.59,44.37Zm-5.84-.73h5.07a2.45,2.45,0,0,0-2.43-2.43A2.67,2.67,0,0,0,144.75,43.64Z"/><path class="cls-1" d="M163.42,36.77v11h-.77V46.43h0a3.11,3.11,0,0,1-2.76,1.46,3.49,3.49,0,0,1-3.57-3.65,3.56,3.56,0,0,1,3.54-3.78,3.23,3.23,0,0,1,2.76,1.5h0V36.77Zm-.77,7.47a2.79,2.79,0,1,0-5.55,0,2.78,2.78,0,1,0,5.55,0Z"/><path class="cls-1" d="M172.47,40.53v7.29h-.76v-1.4h0a3.14,3.14,0,0,1-2.77,1.47,3.49,3.49,0,0,1-3.57-3.65,3.56,3.56,0,0,1,3.54-3.78,3.23,3.23,0,0,1,2.76,1.5h0V40.53Zm-.76,3.71a2.79,2.79,0,1,0-5.55,0,2.78,2.78,0,1,0,5.55,0Z"/><path class="cls-1" d="M175,45.76v-4.5h-1v-.73h1V38l.79-.09v2.64h2.66v.73h-2.66v4.3c0,1,.19,1.57,1.06,1.57a2.75,2.75,0,0,0,1.38-.42l.2.71a3.08,3.08,0,0,1-1.67.47C175.46,47.89,175,47.09,175,45.76Z"/><path class="cls-1" d="M186.58,40.53v7.29h-.75v-1.4h0A3.15,3.15,0,0,1,183,47.89a3.5,3.5,0,0,1-3.57-3.65A3.56,3.56,0,0,1,183,40.46a3.23,3.23,0,0,1,2.76,1.5h0V40.53Zm-.76,3.71a2.79,2.79,0,1,0-5.55,0,2.78,2.78,0,1,0,5.55,0Z"/><path class="cls-1" d="M192.52,40.46a3.56,3.56,0,0,1,3.54,3.78,3.49,3.49,0,0,1-3.57,3.65,3.18,3.18,0,0,1-2.77-1.46h0v1.39h-.77v-11h.79V42h0a3.23,3.23,0,0,1,2.76-1.5Zm-.08,6.68a2.76,2.76,0,0,0,2.81-2.9,2.79,2.79,0,1,0-5.55,0,2.76,2.76,0,0,0,2.74,2.9Z"/><path class="cls-1" d="M204.65,40.53v7.29h-.75v-1.4h0a3.13,3.13,0,0,1-2.77,1.47,3.5,3.5,0,0,1-3.57-3.65,3.56,3.56,0,0,1,3.54-3.78,3.23,3.23,0,0,1,2.76,1.5h0V40.53Zm-3.5,6.61a2.76,2.76,0,0,0,2.74-2.9,2.79,2.79,0,1,0-5.55,0,2.76,2.76,0,0,0,2.81,2.9Z"/><path class="cls-1" d="M206.33,46.86l.45-.62a3.07,3.07,0,0,0,2.35.9c1.08,0,1.7-.55,1.7-1.27s-.85-1-2-1.43-2.14-.87-2.14-2.11a2,2,0,0,1,2.27-1.87,3.61,3.61,0,0,1,2.42.89l-.44.62a3,3,0,0,0-2.06-.76c-.74,0-1.4.4-1.4,1.12s.73,1,1.61,1.34c1.52.54,2.58.82,2.57,2.24,0,1.05-.84,2-2.51,2A4.11,4.11,0,0,1,206.33,46.86Z"/><path class="cls-1" d="M219.67,44.37H213.8a2.71,2.71,0,0,0,2.73,2.77,2.86,2.86,0,0,0,2.29-1.09l.56.48a3.44,3.44,0,0,1-2.85,1.36A3.5,3.5,0,0,1,213,44.18a3.48,3.48,0,0,1,3.41-3.72A3.27,3.27,0,0,1,219.69,44C219.69,44.16,219.67,44.35,219.67,44.37Zm-5.84-.73h5.07a2.46,2.46,0,0,0-2.43-2.43A2.66,2.66,0,0,0,213.83,43.64Z"/><path class="cls-1" d="M223.74,47.89a4.15,4.15,0,0,1-2.81-1l.45-.62a3.09,3.09,0,0,0,2.35.9c1.09,0,1.7-.55,1.7-1.27s-.84-1-2-1.43-2.15-.87-2.15-2.11a2,2,0,0,1,2.28-1.87,3.63,3.63,0,0,1,2.42.89l-.44.62a3,3,0,0,0-2.06-.76c-.74,0-1.4.4-1.4,1.12s.72,1,1.6,1.34c1.53.54,2.58.82,2.57,2.24,0,1.05-.83,2-2.5,2Z"/><path class="cls-1" d="M26.59,56.33a.65.65,0,0,1,.66-.66.66.66,0,1,1,0,1.32A.65.65,0,0,1,26.59,56.33Zm.25,2.2h.79v7.29h-.79Z"/><path class="cls-1" d="M36.27,61.5v4.32h-.79V61.6c0-1.9-.83-2.39-1.85-2.39-1.61,0-2.67,1.17-2.67,3v3.61h-.79V58.53H31V60h0a3.27,3.27,0,0,1,2.82-1.49C35.27,58.46,36.27,59.32,36.27,61.5Z"/><path class="cls-1" d="M43,63.76v-4.5H42v-.73h1V56l.79-.09v2.64h2.66v.73H43.78v4.3c0,1,.19,1.57,1.07,1.57a2.71,2.71,0,0,0,1.37-.42l.21.71a3.11,3.11,0,0,1-1.67.47C43.43,65.89,43,65.09,43,63.76Z"/><path class="cls-1" d="M54.44,61.5v4.32h-.79V61.6c0-1.9-.83-2.39-1.93-2.39-1.61,0-2.67,1.17-2.67,3v3.61h-.79v-11h.79V60h0a3.28,3.28,0,0,1,2.83-1.49C53.44,58.46,54.44,59.32,54.44,61.5Z"/><path class="cls-1" d="M62.94,62.37H57.07a2.71,2.71,0,0,0,2.72,2.77,2.87,2.87,0,0,0,2.3-1.09l.56.48a3.44,3.44,0,0,1-2.85,1.36,3.72,3.72,0,0,1-.13-7.43A3.27,3.27,0,0,1,63,62C63,62.16,62.94,62.35,62.94,62.37Zm-5.84-.73h5.07a2.46,2.46,0,0,0-2.44-2.43A2.65,2.65,0,0,0,57.1,61.64Z"/><path class="cls-1" d="M69.27,55.16h3.61c2.43,0,3.41,1.36,3.41,3.16,0,2.22-1.5,3.19-3.66,3.19H70.11v4.31h-.84Zm3.33,5.55c2,0,2.8-1.05,2.8-2.4A2.21,2.21,0,0,0,72.87,56H70.11v4.74Z"/><path class="cls-1" d="M77.56,62.19a3.7,3.7,0,1,1,3.71,3.7A3.6,3.6,0,0,1,77.56,62.19Zm6.59,0a2.89,2.89,0,1,0-2.89,3A2.85,2.85,0,0,0,84.15,62.19Z"/><path class="cls-1" d="M86.24,64.86l.45-.62a3.07,3.07,0,0,0,2.35.9c1.08,0,1.7-.55,1.7-1.27s-.84-1-2-1.43-2.14-.87-2.14-2.11a2,2,0,0,1,2.28-1.87,3.6,3.6,0,0,1,2.41.89l-.44.62a2.92,2.92,0,0,0-2-.76c-.74,0-1.4.4-1.4,1.12s.72,1,1.6,1.34c1.52.54,2.58.82,2.57,2.24,0,1-.83,2-2.5,2A4.11,4.11,0,0,1,86.24,64.86Z"/><path class="cls-1" d="M99.58,62.37H93.71a2.71,2.71,0,0,0,2.73,2.77,2.86,2.86,0,0,0,2.29-1.09l.56.48a3.44,3.44,0,0,1-2.85,1.36,3.72,3.72,0,0,1-.13-7.43A3.27,3.27,0,0,1,99.6,62,2.54,2.54,0,0,1,99.58,62.37Zm-5.84-.73h5.07a2.46,2.46,0,0,0-2.43-2.43A2.66,2.66,0,0,0,93.74,61.64Z"/><path class="cls-1" d="M101.36,56.33A.67.67,0,1,1,102,57,.65.65,0,0,1,101.36,56.33Zm.25,2.2h.8v7.29h-.8Z"/><path class="cls-1" d="M111.59,54.77v11h-.77V64.43h0A3.1,3.1,0,0,1,108,65.89a3.5,3.5,0,0,1-3.57-3.65A3.56,3.56,0,0,1,108,58.46a3.23,3.23,0,0,1,2.76,1.5h0V54.77Zm-.77,7.47a2.79,2.79,0,1,0-5.55,0,2.78,2.78,0,1,0,5.55,0Z"/><path class="cls-1" d="M113.54,62.19a3.7,3.7,0,1,1,3.7,3.7A3.6,3.6,0,0,1,113.54,62.19Zm6.59,0a2.9,2.9,0,1,0-2.89,3A2.85,2.85,0,0,0,120.13,62.19Z"/><path class="cls-1" d="M129,61.5v4.32h-.79V61.6c0-1.9-.83-2.39-1.84-2.39-1.62,0-2.68,1.17-2.68,3v3.61h-.79V58.53h.79V60h0a3.29,3.29,0,0,1,2.83-1.49C128,58.46,129,59.32,129,61.5Z"/><path class="cls-1" d="M135.86,59.26h-1v-.73h1V56.92c0-1.51.74-2.22,1.91-2.22a2.93,2.93,0,0,1,1.56.43l-.17.7a2.67,2.67,0,0,0-1.33-.37c-.68,0-1.18.41-1.18,1.53v1.54H139v.73h-2.32v6.56h-.79Z"/><path class="cls-1" d="M139.83,62.19a3.7,3.7,0,1,1,3.7,3.7A3.6,3.6,0,0,1,139.83,62.19Zm6.59,0a2.9,2.9,0,1,0-2.9,3A2.85,2.85,0,0,0,146.42,62.19Z"/><path class="cls-1" d="M152.87,58.46v.88l-.46,0c-1.49,0-2.44,1.22-2.44,2.93v3.58h-.79V58.53H150v1.39h0a2.77,2.77,0,0,1,2.47-1.46Z"/><path class="cls-1" d="M165.18,61.56v4.27h-.79v-4c0-1.94-.67-2.6-1.86-2.6s-2.37,1.17-2.37,3v3.62h-.79V61.75c0-1.88-.72-2.54-1.84-2.54-1.36,0-2.42,1.17-2.42,3v3.61h-.79V58.53h.79v1.39h0a3.08,3.08,0,0,1,2.58-1.46A2.17,2.17,0,0,1,160,60H160a3.07,3.07,0,0,1,2.71-1.58C164.35,58.46,165.18,59.51,165.18,61.56Z"/><path class="cls-1" d="M174.06,58.53v7.29h-.76v-1.4h0a3.14,3.14,0,0,1-2.77,1.47,3.49,3.49,0,0,1-3.57-3.65,3.56,3.56,0,0,1,3.54-3.78,3.23,3.23,0,0,1,2.76,1.5h0V58.53Zm-3.5,6.61a2.76,2.76,0,0,0,2.74-2.9,2.79,2.79,0,1,0-5.55,0,2.76,2.76,0,0,0,2.81,2.9Z"/><path class="cls-1" d="M176.61,63.76v-4.5h-1v-.73h1V56l.79-.09v2.64h2.66v.73H177.4v4.3c0,1,.19,1.57,1.06,1.57a2.75,2.75,0,0,0,1.38-.42l.2.71a3.08,3.08,0,0,1-1.67.47C177.05,65.89,176.61,65.09,176.61,63.76Z"/></svg>